<?xml version="1.0" encoding="UTF-8"?>
<svg id="Layer_2" xmlns="http://www.w3.org/2000/svg" viewBox="0 0 470.21 470.21">
  <defs>
  </defs>
  <g id="Layer_1-2" data-name="Layer_1">
    <text class="cls-1" transform="translate(14.55 220.69) rotate(85.7)"><tspan x="0" y="0">T</tspan></text>
    <text class="cls-1" transform="translate(16.53 248.59) rotate(78.94)"><tspan x="0" y="0">e</tspan></text>
    <text class="cls-1" transform="translate(23.13 280.53) rotate(71.8)"><tspan x="0" y="0">s</tspan></text>
    <text class="cls-1" transform="translate(31.39 304.99) rotate(66.01)"><tspan x="0" y="0">t</tspan></text>
    <text class="cls-1" transform="translate(40.1 325) rotate(59.51)"><tspan x="0" y="0">e</tspan></text>
    <text class="cls-1" transform="translate(56.81 352.34) rotate(53.88)"><tspan x="0" y="0"> </tspan></text>
    <text class="cls-1" transform="translate(65.14 363.89) rotate(49.61)"><tspan x="0" y="0">t</tspan></text>
    <text class="cls-1" transform="translate(79.14 380.62) rotate(43.17)"><tspan x="0" y="0">e</tspan></text>
    <text class="cls-1" transform="translate(103.13 402.65) rotate(36.12)"><tspan x="0" y="0">s</tspan></text>
    <text class="cls-1" transform="translate(124.09 417.7) rotate(30.38)"><tspan x="0" y="0">t</tspan></text>
    <text class="cls-1" transform="translate(142.82 428.88) rotate(23.88)"><tspan x="0" y="0">e</tspan></text>
    <text class="cls-1" transform="translate(172.35 441.38) rotate(18.2)"><tspan x="0" y="0"> </tspan></text>
    <text class="cls-1" transform="translate(185.86 445.9) rotate(13.88)"><tspan x="0" y="0">t</tspan></text>
    <text class="cls-1" transform="translate(207.02 451.31) rotate(7.37)"><tspan x="0" y="0">e</tspan></text>
    <text class="cls-1" transform="translate(239.14 455.02) rotate(.93)"><tspan x="0" y="0">s</tspan></text>
    <text class="cls-1" transform="translate(265.13 455.11) rotate(-5.32)"><tspan x="0" y="0">t</tspan></text>
    <text class="cls-1" transform="translate(286.88 453.26) rotate(-11.81)"><tspan x="0" y="0">e</tspan></text>
  </g>
</svg>